<?xml version="1.0" encoding="utf-8"?>
<!-- Generator: Adobe Illustrator 22.0.1, SVG Export Plug-In . SVG Version: 6.00 Build 0)  -->
<svg version="1.1" id="Layer_1" xmlns="http://www.w3.org/2000/svg" xmlns:xlink="http://www.w3.org/1999/xlink" x="0px" y="0px"
	 viewBox="0 0 24 24" style="enable-background:new 0 0 24 24;" xml:space="preserve">
<style type="text/css">
	.st0{fill:#FFFFFF;}
</style>
<path class="st0" d="M12.5,17.5c1.4-1.1,3.6-1.8,5.5-2V22c-1.7,0.3-3.8,1.1-5.5,2V17.5z M11.5,17.5c-1.4-1.1-3.6-1.8-5.5-2V22
	c1.7,0.3,3.8,1.1,5.5,2V17.5z M5,20.4C3,19.8,2,19,2,19l0-2c0-2.1,0.1-3.3,2.6-3.9c2.8-0.6,5.8-1.3,4.2-3.5C5,4,8.1,0,12,0
	c3.9,0,7,4,3.1,9.5c-1.5,2.2,1.4,2.9,4.2,3.5c2.6,0.6,2.7,1.8,2.6,3.9l0,2c0,0-0.9,0.8-3,1.4v-6l-1.1,0.1c-2.1,0.2-4.4,1-5.9,2.1
	c-1.6-1.1-3.9-2-5.9-2.1L5,14.4C5,14.4,5,20.4,5,20.4z"/>
</svg>
